<?xml version="1.0" encoding="utf-8"?>
<!-- Uploaded to: SVG Repo, www.svgrepo.com, Generator: SVG Repo Mixer Tools -->
<svg fill="#000000" height="800px" width="800px" version="1.1" id="Layer_1" xmlns="http://www.w3.org/2000/svg" xmlns:xlink="http://www.w3.org/1999/xlink" 
	 viewBox="0 0 256 256" xml:space="preserve">
<g>
	<g>
		<g>
			<g>
				<g>
					<g>
						<g>
							<path d="M249,78c-1-2.8-3.9-4.2-6.7-3.2l-15.6,5.6c-3.3-6.8-8.4-12.2-15.1-16.5l7-14.9c1.4-2.9,0.3-5.7-2.5-7.1
								c-2.9-1.4-5.7-0.3-7.1,2.5l-7,14.9c-7.7-2.4-15.3-2.5-22.4-1.2L174,42.6c-1-2.8-3.9-4.2-6.7-3.2c-2.8,1-4.2,3.9-3.2,6.7
								l5.6,15.6c-6.8,3.3-12.2,8.4-16.5,15.1l-14.9-7c-2.9-1.4-5.7-0.3-7.1,2.5c-1.4,2.9-0.3,5.7,2.5,7.1l14.9,7
								c-1.3,4.1-1.9,8.2-2,12.2c-5.6-2.2-11.6-3.4-18-3.4c-24.7,0-45.1,18.3-48.4,42.1c-3.3-1.1-6.7-1.8-10.3-1.8
								c-18.6,0-33.7,15.1-33.7,33.7c0,0.2,0,0.3,0,0.5c-1.5-0.3-3-0.5-4.6-0.5c-13.2,0-23.8,10.7-23.8,23.8
								c0,13.2,10.7,23.8,23.8,23.8c0,0,145.6-0.8,146.6-0.8c18.6,0,33.7-15.1,33.7-33.7c0-18.6-15.1-33.7-33.7-33.7
								c-0.3,0-0.7,0.1-1,0.1c0.1-1.5,0.2-3.1,0.2-4.7c0-1.3-0.1-2.6-0.2-3.9c7.1,2,14.2,2,20.8,0.7l5.6,15.6c1,2.8,3.9,4.2,6.7,3.2
								c1.4-0.5,2.6-1.7,3-2.7c0.5-1,0.7-2.6,0.1-4l-5.6-15.6c6.8-3.3,12.2-8.4,16.5-15.1l14.9,7c2.9,1.4,5.7,0.3,7.1-2.5
								c1.4-2.9,0.3-5.7-2.5-7.1l-14.9-7c2.4-7.7,2.5-15.3,1.2-22.4l15.6-5.6c1.4-0.5,2.6-1.7,3-2.7C249.3,81.1,249.5,79.4,249,78z
								 M217.7,113.2c-7.5,15.9-26.6,22.7-42.5,15.3c-0.1-0.1-0.3-0.1-0.4-0.2c-3.3-9.6-9.5-17.8-17.5-23.6
								c-1-6.1-0.2-12.6,2.6-18.7c7.5-15.9,26.6-22.7,42.5-15.3C218.3,78.2,225.2,97.3,217.7,113.2z"/>
						</g>
					</g>
				</g>
			</g>
		</g>
	</g>
</g>
</svg>